<mxfile host="app.diagrams.net" agent="Mozilla/5.0 (Windows NT 10.0; Win64; x64) AppleWebKit/537.36 (KHTML, like Gecko) Chrome/137.0.0.0 Safari/537.36" version="27.0.9">
  <diagram name="第1頁" id="B1CNI_jeQQ63HahvnKDQ">
    <mxGraphModel dx="1068" dy="599" grid="0" gridSize="10" guides="1" tooltips="1" connect="1" arrows="1" fold="1" page="0" pageScale="1" pageWidth="1169" pageHeight="827" math="0" shadow="0">
      <root>
        <mxCell id="0" />
        <mxCell id="1" parent="0" />
        <mxCell id="tNd5grYAS1tOMjvDbvOC-16" value="" style="rounded=0;whiteSpace=wrap;html=1;" vertex="1" parent="1">
          <mxGeometry x="259" y="120" width="588" height="288" as="geometry" />
        </mxCell>
        <mxCell id="tNd5grYAS1tOMjvDbvOC-1" value="&lt;font style=&quot;font-size: 15px;&quot; face=&quot;標楷體&quot;&gt;數位創新行動&amp;nbsp;&lt;/font&gt;&lt;span style=&quot;font-size: 15px; font-family: 標楷體; background-color: transparent; color: light-dark(rgb(0, 0, 0), rgb(255, 255, 255));&quot;&gt;Digital Innovation Actions&lt;/span&gt;" style="text;html=1;align=center;verticalAlign=middle;whiteSpace=wrap;rounded=0;" vertex="1" parent="1">
          <mxGeometry x="259" y="84" width="307" height="30" as="geometry" />
        </mxCell>
        <mxCell id="tNd5grYAS1tOMjvDbvOC-6" value="&lt;table&gt;&lt;tbody&gt;&lt;tr&gt;&lt;td data-col-size=&quot;sm&quot; data-end=&quot;245&quot; data-start=&quot;210&quot;&gt;&lt;/td&gt;&lt;/tr&gt;&lt;/tbody&gt;&lt;/table&gt;&lt;table&gt;&lt;tbody&gt;&lt;tr&gt;&lt;td data-col-size=&quot;sm&quot; data-end=&quot;259&quot; data-start=&quot;245&quot;&gt;&lt;font face=&quot;標楷體&quot;&gt;外部競爭環境&lt;br&gt;External Competitive Environment&lt;/font&gt;&lt;/td&gt;&lt;/tr&gt;&lt;/tbody&gt;&lt;/table&gt;" style="rounded=0;whiteSpace=wrap;html=1;" vertex="1" parent="1">
          <mxGeometry x="267" y="129" width="384" height="48" as="geometry" />
        </mxCell>
        <mxCell id="tNd5grYAS1tOMjvDbvOC-7" value="&lt;table&gt;&lt;tbody&gt;&lt;tr&gt;&lt;td data-col-size=&quot;sm&quot; data-end=&quot;245&quot; data-start=&quot;210&quot;&gt;&lt;/td&gt;&lt;/tr&gt;&lt;/tbody&gt;&lt;/table&gt;&lt;table&gt;&lt;tbody&gt;&lt;tr&gt;&lt;td data-col-size=&quot;sm&quot; data-end=&quot;259&quot; data-start=&quot;245&quot;&gt;&lt;font face=&quot;標楷體&quot;&gt;&lt;span style=&quot;font-size: 12px;&quot;&gt;內部組織環境&lt;/span&gt;&lt;br&gt;&lt;span style=&quot;font-size: 12px;&quot;&gt;Internal Organizational Environment&lt;span style=&quot;white-space: pre;&quot;&gt;&#x9;&lt;/span&gt;&lt;/span&gt;&lt;/font&gt;&lt;/td&gt;&lt;/tr&gt;&lt;/tbody&gt;&lt;/table&gt;" style="rounded=0;whiteSpace=wrap;html=1;strokeColor=default;align=center;verticalAlign=middle;fontFamily=Helvetica;fontSize=12;fontColor=default;fillColor=default;" vertex="1" parent="1">
          <mxGeometry x="267" y="347" width="384" height="48" as="geometry" />
        </mxCell>
        <mxCell id="tNd5grYAS1tOMjvDbvOC-14" value="&lt;div&gt;&lt;font face=&quot;標楷體&quot;&gt;&lt;span style=&quot;font-size: 12px;&quot;&gt;數位創新結果&lt;/span&gt;&lt;/font&gt;&lt;/div&gt;&lt;div&gt;&lt;font face=&quot;標楷體&quot;&gt;&lt;span style=&quot;font-size: 12px;&quot;&gt;Digital Innovation Outcomes&lt;/span&gt;&lt;/font&gt;&lt;/div&gt;" style="text;html=1;align=center;verticalAlign=middle;whiteSpace=wrap;rounded=0;" vertex="1" parent="1">
          <mxGeometry x="665.5" y="200" width="185" height="30" as="geometry" />
        </mxCell>
        <mxCell id="tNd5grYAS1tOMjvDbvOC-15" value="&lt;font face=&quot;標楷體&quot;&gt;產品　Product&lt;/font&gt;&lt;div&gt;&lt;font face=&quot;標楷體&quot;&gt;服務　Service&lt;/font&gt;&lt;/div&gt;&lt;div&gt;&lt;span style=&quot;font-family: 標楷體; background-color: transparent; color: light-dark(rgb(0, 0, 0), rgb(255, 255, 255));&quot;&gt;流程　Process&lt;/span&gt;&lt;/div&gt;&lt;table&gt;&lt;tbody&gt;&lt;tr&gt;&lt;td data-col-size=&quot;sm&quot; data-end=&quot;736&quot; data-start=&quot;718&quot;&gt;&lt;/td&gt;&lt;/tr&gt;&lt;/tbody&gt;&lt;/table&gt;" style="rounded=1;whiteSpace=wrap;html=1;" vertex="1" parent="1">
          <mxGeometry x="698" y="234" width="120" height="60" as="geometry" />
        </mxCell>
        <mxCell id="tNd5grYAS1tOMjvDbvOC-22" value="" style="endArrow=classic;startArrow=classic;html=1;rounded=0;fontSize=12;startSize=8;endSize=8;curved=1;exitX=0.5;exitY=0;exitDx=0;exitDy=0;" edge="1" parent="1" source="tNd5grYAS1tOMjvDbvOC-18">
          <mxGeometry width="50" height="50" relative="1" as="geometry">
            <mxPoint x="458.546" y="236.913" as="sourcePoint" />
            <mxPoint x="458.95" y="177" as="targetPoint" />
          </mxGeometry>
        </mxCell>
        <mxCell id="tNd5grYAS1tOMjvDbvOC-24" value="" style="endArrow=classic;html=1;rounded=0;fontSize=12;startSize=8;endSize=8;curved=1;" edge="1" parent="1">
          <mxGeometry width="50" height="50" relative="1" as="geometry">
            <mxPoint x="642.5" y="262.5" as="sourcePoint" />
            <mxPoint x="697" y="263" as="targetPoint" />
          </mxGeometry>
        </mxCell>
        <mxCell id="tNd5grYAS1tOMjvDbvOC-25" value="" style="group" vertex="1" connectable="0" parent="1">
          <mxGeometry x="275.5" y="218" width="367" height="87" as="geometry" />
        </mxCell>
        <mxCell id="tNd5grYAS1tOMjvDbvOC-18" value="" style="rounded=1;whiteSpace=wrap;html=1;dashed=1;strokeColor=#666666;strokeWidth=2;" vertex="1" parent="tNd5grYAS1tOMjvDbvOC-25">
          <mxGeometry width="367" height="87" as="geometry" />
        </mxCell>
        <mxCell id="tNd5grYAS1tOMjvDbvOC-8" value="&lt;font face=&quot;標楷體&quot;&gt;啟動&lt;/font&gt;&lt;div&gt;&lt;font face=&quot;標楷體&quot;&gt;INITIATE&lt;/font&gt;&lt;/div&gt;" style="rounded=1;whiteSpace=wrap;html=1;fillColor=#dae8fc;strokeColor=#DAE8FC;" vertex="1" parent="tNd5grYAS1tOMjvDbvOC-25">
          <mxGeometry x="37" y="13.5" width="61" height="60" as="geometry" />
        </mxCell>
        <mxCell id="tNd5grYAS1tOMjvDbvOC-9" value="&lt;font face=&quot;標楷體&quot;&gt;&lt;span style=&quot;font-size: 12px;&quot;&gt;開發&lt;/span&gt;&lt;/font&gt;&lt;br&gt;&lt;div&gt;&lt;font face=&quot;標楷體&quot;&gt;&lt;span style=&quot;font-size: 12px;&quot;&gt;DEVELOP&lt;/span&gt;&lt;/font&gt;&lt;/div&gt;" style="rounded=1;whiteSpace=wrap;html=1;fillColor=#dae8fc;strokeColor=#DAE8FC;" vertex="1" parent="tNd5grYAS1tOMjvDbvOC-25">
          <mxGeometry x="114" y="13.5" width="61" height="60" as="geometry" />
        </mxCell>
        <mxCell id="tNd5grYAS1tOMjvDbvOC-10" value="&lt;font face=&quot;標楷體&quot;&gt;&lt;span style=&quot;font-size: 12px;&quot;&gt;利用&lt;/span&gt;&lt;/font&gt;&lt;br&gt;&lt;div&gt;&lt;font face=&quot;標楷體&quot;&gt;&lt;span style=&quot;font-size: 12px;&quot;&gt;EXPLOIT&lt;/span&gt;&lt;/font&gt;&lt;/div&gt;" style="rounded=1;whiteSpace=wrap;html=1;fillColor=#DAE8FC;strokeColor=#DAE8FC;" vertex="1" parent="tNd5grYAS1tOMjvDbvOC-25">
          <mxGeometry x="269" y="13.5" width="61" height="60" as="geometry" />
        </mxCell>
        <mxCell id="tNd5grYAS1tOMjvDbvOC-11" value="&lt;div&gt;&lt;font face=&quot;標楷體&quot;&gt;&lt;span style=&quot;font-size: 12px;&quot;&gt;實施&lt;/span&gt;&lt;/font&gt;&lt;/div&gt;&lt;div&gt;&lt;span style=&quot;background-color: transparent; font-size: 12px;&quot;&gt;&lt;font face=&quot;標楷體&quot;&gt;IMPLEMENT&lt;/font&gt;&lt;/span&gt;&lt;/div&gt;" style="rounded=1;whiteSpace=wrap;html=1;fillColor=#dae8fc;strokeColor=#DAE8FC;" vertex="1" parent="tNd5grYAS1tOMjvDbvOC-25">
          <mxGeometry x="192" y="13.5" width="61" height="60" as="geometry" />
        </mxCell>
        <mxCell id="tNd5grYAS1tOMjvDbvOC-26" value="" style="endArrow=classic;startArrow=classic;html=1;rounded=0;fontSize=12;startSize=8;endSize=8;curved=1;exitX=0.5;exitY=0;exitDx=0;exitDy=0;" edge="1" parent="1">
          <mxGeometry width="50" height="50" relative="1" as="geometry">
            <mxPoint x="458.62" y="346" as="sourcePoint" />
            <mxPoint x="458.57" y="305" as="targetPoint" />
          </mxGeometry>
        </mxCell>
      </root>
    </mxGraphModel>
  </diagram>
</mxfile>
